<?xml version="1.0" standalone="no"?>
<!DOCTYPE svg PUBLIC "-//W3C//DTD SVG 20010904//EN"
 "http://www.w3.org/TR/2001/REC-SVG-20010904/DTD/svg10.dtd">
<svg version="1.0" xmlns="http://www.w3.org/2000/svg"
 width="508.000000pt" height="508.000000pt" viewBox="0 0 508.000000 508.000000"
 preserveAspectRatio="xMidYMid meet">
<metadata>
Created by potrace 1.14, written by Peter Selinger 2001-2017
</metadata>
<g transform="translate(0.000000,508.000000) scale(0.100000,-0.100000)"
fill="#000000" stroke="none">
<path d="M1935 4963 c5 -15 4 -16 -6 -5 -15 14 -59 17 -59 3 0 -12 41 -63 65
-81 11 -8 33 -27 48 -42 l29 -27 -51 1 c-49 1 -80 -10 -53 -19 20 -7 43 -34
37 -43 -10 -16 88 -41 136 -34 41 6 48 4 63 -17 20 -29 21 -43 0 -35 -9 3 -25
-4 -40 -19 -14 -14 -34 -25 -44 -25 -11 0 -34 -14 -52 -30 -32 -29 -32 -31
-14 -45 11 -8 28 -15 38 -15 10 0 18 -4 18 -10 0 -15 50 -12 56 4 3 8 13 12
25 9 10 -3 30 2 43 11 15 10 27 12 31 6 8 -13 -3 -30 -20 -30 -8 0 -20 -8 -27
-18 -7 -11 -32 -22 -58 -26 -24 -4 -59 -18 -77 -32 -35 -26 -45 -51 -16 -40
15 6 15 5 -1 -13 -24 -26 -18 -65 12 -69 32 -5 86 15 116 43 14 13 26 20 26
15 0 -6 5 -10 10 -10 6 0 8 12 5 28 -6 25 -5 25 8 10 8 -10 17 -18 21 -18 11
0 6 38 -6 42 -8 3 -7 11 4 27 12 17 18 19 24 10 4 -7 3 -14 -4 -17 -7 -2 -9
-15 -5 -32 6 -33 -6 -48 -54 -74 -35 -17 -63 -52 -63 -75 0 -10 5 -8 16 8 12
16 19 20 27 12 7 -7 15 -7 24 1 9 7 7 -1 -4 -20 -10 -18 -22 -32 -26 -32 -5 0
-5 -6 -1 -12 4 -7 -2 -5 -13 5 -21 18 -22 18 -47 -26 -47 -79 -28 -147 41
-147 36 0 127 74 119 97 -3 7 3 28 14 46 11 17 20 27 20 21 0 -5 -7 -19 -15
-30 -21 -27 -18 -37 6 -24 11 7 22 10 24 8 1 -2 5 -26 9 -54 6 -50 6 -52 -21
-57 -16 -3 -44 -21 -63 -39 -33 -32 -80 -53 -140 -62 -14 -3 -27 -5 -29 -5 -2
-1 1 -7 7 -14 8 -9 6 -21 -8 -42 -43 -65 -14 -117 67 -121 48 -3 78 10 66 29
-3 5 -1 7 4 4 6 -4 16 0 23 8 7 8 20 15 29 15 10 0 4 -8 -15 -19 -17 -11 -36
-33 -42 -50 -7 -19 -24 -38 -44 -49 -43 -23 -128 -108 -129 -130 0 -9 -2 -27
-5 -39 -6 -34 11 -28 30 10 l16 32 0 -41 c0 -50 10 -59 75 -68 34 -4 45 -3 35
4 -8 5 -27 10 -41 10 -49 0 -83 71 -39 83 11 3 23 1 26 -4 3 -6 11 -5 20 2 20
16 44 4 44 -23 0 -39 12 -68 26 -68 24 0 16 -15 -56 -92 -39 -42 -79 -96 -90
-120 -29 -63 -26 -139 6 -194 23 -39 30 -44 61 -44 l35 0 -80 -85 c-45 -48
-85 -100 -92 -120 -9 -27 -17 -35 -35 -35 -27 0 -36 -17 -24 -42 6 -10 5 -19
-1 -23 -5 -3 -10 -36 -10 -73 0 -69 17 -112 45 -112 22 0 11 -47 -17 -78 -14
-15 -42 -62 -61 -104 -35 -77 -36 -78 -73 -78 -50 0 -109 -59 -100 -100 3 -16
-1 -35 -9 -46 -8 -11 -15 -28 -15 -39 0 -15 -6 -20 -24 -20 -14 1 -32 7 -40
14 -8 7 -24 10 -35 6 -10 -3 -22 -1 -26 5 -3 5 -17 10 -31 10 -13 0 -32 4 -42
9 -99 51 -120 60 -124 55 -3 -3 5 -26 17 -52 45 -91 193 -207 343 -268 41 -16
59 -29 63 -46 4 -19 11 -23 38 -20 35 2 216 -78 278 -124 17 -13 35 -24 38
-24 12 0 0 45 -12 46 -7 1 -17 2 -22 3 -5 0 -12 12 -15 26 -4 16 -11 23 -18
19 -7 -4 -8 -3 -4 4 10 17 34 3 38 -21 2 -12 9 -22 16 -22 23 0 80 -54 106
-101 14 -26 25 -49 23 -51 -2 -2 -15 5 -28 16 -14 12 -18 20 -11 21 7 0 10 5
7 10 -4 6 -10 8 -15 5 -11 -7 -27 15 -36 49 -7 28 -8 29 -15 8 -5 -12 -6 -29
-3 -37 3 -8 -1 -21 -9 -30 -9 -8 -18 -41 -22 -72 -3 -32 -9 -71 -13 -88 -4
-16 -7 -74 -6 -129 0 -62 -2 -92 -8 -82 -5 9 -16 16 -23 16 -8 0 -15 4 -15 10
0 5 -19 22 -42 37 -24 15 -53 36 -65 47 -13 11 -26 16 -30 13 -3 -4 -16 2 -28
13 -12 12 -26 20 -31 19 -5 -1 -35 10 -67 25 -32 16 -64 29 -71 30 -8 1 -20 7
-27 12 -8 6 -32 18 -54 28 -22 9 -47 21 -55 26 -8 6 -24 14 -35 19 -11 5 -30
23 -43 40 -12 17 -27 31 -32 31 -26 0 -1 -123 41 -202 5 -10 9 -22 9 -27 0
-18 130 -225 193 -306 72 -93 156 -174 275 -265 108 -82 173 -172 198 -274 13
-53 26 -80 54 -110 21 -23 47 -60 59 -83 30 -60 42 -62 20 -3 -10 27 -16 56
-13 64 6 17 -22 76 -37 76 -6 0 -7 4 -4 10 3 5 1 10 -5 10 -6 0 -8 4 -5 10 3
5 2 10 -4 10 -12 0 -55 79 -47 87 3 3 13 -9 23 -27 25 -45 53 -80 64 -80 13 0
11 54 -3 69 -11 10 -10 11 5 6 9 -4 17 -10 18 -14 1 -9 9 -84 10 -101 1 -8 6
-20 11 -26 5 -7 18 -29 29 -50 l20 -39 -4 40 c-2 22 -5 45 -6 50 -2 6 -2 33
-1 60 l2 50 13 -60 c7 -33 13 -48 14 -34 0 14 12 40 26 59 21 29 25 44 24 104
-1 39 4 89 9 111 6 22 11 63 11 92 0 56 34 139 99 246 19 31 32 60 28 64 -3 3
0 13 7 22 18 21 36 111 38 186 1 71 7 97 20 90 5 -4 9 -1 9 4 0 6 9 11 19 11
11 0 22 4 26 9 3 5 19 12 35 16 17 4 30 11 30 16 0 5 9 9 19 9 11 0 26 6 33
13 7 7 31 21 53 31 22 10 54 29 72 42 17 13 36 24 41 24 14 0 76 81 91 120 46
122 50 138 51 218 0 63 -3 83 -12 80 -7 -3 -15 -13 -16 -23 -3 -12 0 -15 9
-10 18 12 5 -121 -15 -160 l-16 -30 0 28 c0 15 5 27 10 27 7 0 8 13 4 35 -4
23 -2 35 5 35 6 0 10 11 9 25 -1 14 -5 25 -9 25 -7 0 -29 -110 -29 -143 0 -22
-26 -33 -80 -36 -24 -1 -49 -6 -56 -11 -27 -23 -34 45 -9 84 16 23 12 76 -5
76 -4 0 -11 15 -16 33 -10 33 -50 60 -105 72 -19 3 -37 21 -60 57 -18 29 -42
61 -53 70 l-21 17 24 25 c14 14 32 26 41 26 21 0 40 23 63 73 21 45 21 83 2
117 -8 14 -14 48 -15 76 0 43 -4 54 -32 81 -18 16 -40 33 -49 36 -9 3 -38 41
-65 84 -58 94 -70 110 -109 135 -16 11 -21 17 -10 13 36 -13 65 -18 65 -10 0
5 -19 27 -42 49 -38 37 -41 45 -39 86 l2 45 -30 -32 c-34 -38 -60 -42 -86 -13
-17 18 -17 20 -1 20 14 0 15 4 6 21 -15 28 -2 39 15 14 24 -34 35 -45 46 -45
6 0 8 7 5 16 -3 9 -6 25 -6 36 0 11 -13 33 -30 50 -16 16 -30 37 -30 46 0 12
5 10 18 -9 23 -35 138 -144 170 -160 13 -8 29 -25 35 -39 36 -85 142 -201 240
-264 29 -19 70 -53 91 -76 21 -23 39 -40 41 -38 1 1 -3 66 -11 143 -7 77 -14
145 -14 150 0 6 -5 2 -11 -8 -7 -12 -7 -28 -2 -45 5 -15 7 -38 4 -51 -6 -22
-8 -23 -22 -9 -8 8 -14 28 -13 44 0 16 -4 32 -10 37 -8 5 -8 9 0 15 5 4 18 18
27 31 15 23 15 26 -2 50 -11 14 -41 39 -69 55 -27 16 -56 40 -65 55 -24 40
-117 131 -134 131 -12 0 -14 8 -10 33 7 50 -18 118 -59 157 -20 19 -51 58 -69
85 -19 28 -47 59 -64 69 -33 22 -65 71 -56 86 3 6 15 10 26 10 20 0 19 2 -5
31 -14 17 -26 39 -26 49 0 9 -7 23 -15 30 -17 14 -21 35 -5 25 6 -3 10 1 10
10 0 14 5 13 33 -6 17 -12 51 -41 75 -63 35 -34 44 -38 52 -26 8 13 10 12 10
-2 0 -11 28 -37 70 -65 83 -55 147 -66 181 -32 23 23 24 33 4 53 -8 8 -15 21
-15 30 0 28 -50 75 -100 91 -37 12 -50 22 -50 36 0 14 -16 26 -56 44 -31 14
-64 25 -74 25 -9 0 -25 9 -36 21 -16 17 -26 20 -61 15 -34 -4 -43 -2 -43 9 0
8 6 15 13 15 6 0 34 11 61 25 l48 25 26 -20 c14 -11 40 -20 60 -20 l35 0 -34
25 c-79 57 -141 75 -204 56 l-30 -8 0 47 c0 27 3 46 8 43 4 -2 7 -11 7 -19 0
-21 22 -27 53 -15 17 7 27 7 27 1 0 -6 -10 -11 -22 -11 -19 -1 -20 -2 -4 -6
10 -3 30 1 43 8 21 11 29 11 55 -4 17 -10 33 -16 35 -13 11 11 -11 47 -37 61
-17 9 -39 36 -57 70 -35 71 -50 84 -99 88 l-39 4 2 48 c1 29 -5 58 -14 71 -8
13 -21 45 -29 71 -12 41 -12 49 -1 58 8 5 22 25 31 43 9 18 25 38 36 45 11 6
20 15 20 19 0 14 -65 8 -87 -7 -21 -15 -23 -14 -40 12 -10 15 -20 30 -23 33
-3 3 -6 12 -7 20 -1 8 -5 25 -9 38 -5 18 -3 21 10 16 24 -9 46 14 46 50 0 17
7 40 15 50 19 25 19 36 2 36 -9 0 -14 12 -15 31 -1 47 -15 55 -51 28 -23 -17
-30 -28 -25 -43 4 -16 3 -18 -5 -6 -8 12 -12 9 -20 -13 -6 -16 -11 -33 -11
-39 0 -7 -4 -7 -12 0 -7 6 -17 11 -22 11 -6 0 -11 8 -12 18 -12 87 -18 106
-36 123 -20 19 -44 18 -33 -1 13 -19 -4 -7 -43 31 -42 42 -69 53 -57 23z m61
-78 c9 -8 12 -15 8 -15 -5 0 -3 -5 4 -12 15 -15 15 -28 1 -28 -5 0 -8 4 -5 8
3 5 -4 16 -15 25 -18 16 -26 37 -13 37 3 0 12 -7 20 -15z m63 -35 c6 -19 7
-30 2 -25 -5 6 -13 24 -17 40 -9 39 0 30 15 -15z m186 -20 c-3 -5 -10 -10 -16
-10 -5 0 -9 5 -9 10 0 6 7 10 16 10 8 0 12 -4 9 -10z m-190 -30 c-3 -5 0 -10
7 -11 7 0 0 -5 -15 -11 -21 -7 -32 -7 -40 1 -8 8 -4 11 14 11 19 0 21 2 9 10
-12 8 -10 10 8 10 13 0 20 -4 17 -10z m190 -38 c-8 -2 -11 -12 -8 -25 5 -18 3
-20 -8 -9 -7 6 -21 12 -32 12 -10 0 -15 5 -12 10 3 6 15 10 26 10 10 0 19 7
19 15 0 13 2 14 14 3 11 -10 11 -14 1 -16z m-182 -19 c-13 -2 -33 -2 -45 0
-13 2 -3 4 22 4 25 0 35 -2 23 -4z m157 -32 c0 -4 -7 -8 -15 -8 -16 0 -20 9
-9 20 8 8 24 -1 24 -12z m-75 -71 c-3 -5 -13 -10 -21 -10 -8 0 -12 5 -9 10 3
6 13 10 21 10 8 0 12 -4 9 -10z m29 -19 c7 -11 -14 -20 -31 -13 -7 2 -10 8 -7
13 7 12 31 12 38 0z m-129 -41 c3 -5 -3 -10 -15 -10 -12 0 -18 5 -15 10 3 6
10 10 15 10 5 0 12 -4 15 -10z m142 4 c-3 -3 -12 -4 -19 -1 -8 3 -5 6 6 6 11
1 17 -2 13 -5z m-10 -20 c-3 -3 -12 -4 -19 -1 -8 3 -5 6 6 6 11 1 17 -2 13 -5z
m98 -94 c3 -5 1 -10 -4 -10 -6 0 -11 5 -11 10 0 6 2 10 4 10 3 0 8 -4 11 -10z
m-231 -82 c-5 -8 -2 -9 9 -5 26 10 20 -11 -8 -29 -33 -21 -41 -13 -20 20 17
25 34 38 19 14z m61 -28 c-3 -5 -12 -10 -18 -10 -7 0 -6 4 3 10 19 12 23 12
15 0z m142 4 c-3 -3 -12 -4 -19 -1 -8 3 -5 6 6 6 11 1 17 -2 13 -5z m-44 -84
c-3 -13 0 -20 8 -20 9 -1 6 -7 -8 -19 -12 -10 -19 -21 -16 -25 4 -3 -4 -6 -16
-6 -21 0 -21 1 -5 33 27 53 46 73 37 37z m52 -29 c-14 -29 -35 -49 -35 -36 0
9 40 65 46 65 2 0 -2 -13 -11 -29z m49 -5 c-3 -14 -10 -24 -14 -21 -5 3 -3 16
3 29 15 31 20 27 11 -8z m-187 -79 c-6 -15 -18 -27 -25 -27 -7 0 -11 4 -8 9 4
5 1 11 -6 13 -7 3 1 11 17 20 17 8 31 14 32 13 2 -1 -3 -13 -10 -28z m51 -15
c2 -7 -5 -12 -15 -12 -14 0 -15 -2 -5 -9 17 -11 12 -46 -7 -46 -20 0 -39 33
-25 43 6 4 14 15 17 25 7 20 28 19 35 -1z m38 -4 c-1 -7 -7 -22 -14 -33 -11
-20 -11 -20 -12 1 0 11 5 25 12 32 15 15 17 15 14 0z m200 -65 c-3 -4 -6 -1
-6 5 0 6 -6 9 -14 6 -11 -4 -13 0 -9 16 l6 21 14 -21 c8 -12 12 -24 9 -27z
m-316 22 c-10 -12 -10 -15 3 -15 9 0 18 -4 21 -9 4 -5 -3 -7 -14 -4 -11 3 -23
9 -26 14 -7 11 4 29 18 29 7 0 6 -6 -2 -15z m370 -37 c-1 -7 -17 -20 -36 -30
-30 -14 -35 -14 -30 -1 3 8 6 18 6 23 0 8 21 16 48 19 6 0 12 -5 12 -11z
m-154 -91 c-6 -30 -23 -57 -35 -57 -10 0 0 73 11 87 17 21 30 3 24 -30z m15
-64 c-16 -29 -20 -33 -21 -17 0 12 8 39 17 60 14 33 18 36 21 17 2 -12 -6 -39
-17 -60z m-63 28 c-2 -30 -28 -37 -36 -10 -3 11 -1 11 7 -1 8 -11 11 -11 12
-2 1 6 3 17 4 22 1 6 3 12 4 15 0 3 3 5 6 5 3 0 4 -13 3 -29z m230 -10 c10 -6
9 -10 -7 -14 -21 -5 -36 5 -24 17 8 8 15 7 31 -3z m-60 -42 c-20 -13 -28 -11
-22 6 4 8 10 12 15 9 5 -3 10 3 10 13 1 17 2 17 6 -1 3 -10 -1 -22 -9 -27z
m-214 4 c17 -16 24 -20 17 -11 -11 14 -10 17 6 16 10 0 26 3 35 7 15 6 18 2
16 -19 -1 -14 -8 -26 -15 -26 -7 0 -13 -4 -13 -9 0 -18 -58 10 -74 34 -29 44
-16 48 28 8z m-80 -8 c-4 -8 -8 -15 -10 -15 -2 0 -4 7 -4 15 0 8 4 15 10 15 5
0 7 -7 4 -15z m196 -36 c0 -33 1 -33 -37 -18 -25 9 -26 11 -10 20 9 6 15 14
13 18 -3 4 4 8 15 8 15 1 19 -5 19 -28z m-155 -1 c6 -4 0 -8 -12 -8 -16 0 -21
4 -16 15 3 9 8 12 12 8 3 -4 11 -11 16 -15z m-89 -18 c1 -35 -6 -37 -30 -11
-17 18 -17 20 1 30 26 15 28 14 29 -19z m263 -24 c-9 -8 -10 -7 -5 7 3 10 7
26 7 35 1 9 4 6 6 -7 3 -13 -1 -28 -8 -35z m-219 26 c19 -17 19 -18 0 -30 -17
-10 -20 -10 -20 3 0 8 -4 15 -10 15 -5 0 -7 7 -4 15 8 19 11 19 34 -3z m340
-17 c20 -24 6 -28 -15 -5 -10 11 -13 20 -8 20 6 0 16 -7 23 -15z m-166 -40
c-5 -31 4 -33 16 -2 8 20 9 20 9 -9 1 -16 -6 -39 -14 -50 -14 -18 -14 -18 -15
6 l-1 25 -16 -22 c-8 -13 -24 -23 -34 -23 -23 0 -24 9 -3 38 8 12 12 27 9 32
-9 15 1 12 18 -5 13 -13 16 -13 21 1 3 8 2 12 -4 9 -11 -7 -14 8 -3 18 14 14
22 6 17 -18z m132 10 c-11 -8 -22 -12 -25 -9 -6 6 19 24 34 24 6 -1 1 -7 -9
-15z m99 -15 c3 -5 22 -10 41 -10 19 0 34 -4 34 -10 0 -20 -86 -5 -94 16 -6
16 10 19 19 4z m-31 -29 c4 -5 -3 -7 -14 -4 -23 6 -26 13 -6 13 8 0 17 -4 20
-9z m81 -40 c-6 -5 -25 10 -25 20 0 5 6 4 14 -3 8 -7 12 -15 11 -17z m-472
-31 c-6 -22 -18 -26 -29 -9 -3 6 0 15 7 20 22 14 28 11 22 -11z m134 -6 c-1
10 3 21 10 23 8 3 10 -13 6 -56 -3 -34 -3 -61 0 -61 4 0 14 16 22 37 8 20 18
33 21 30 9 -9 -31 -72 -45 -69 -6 1 -11 -3 -11 -10 0 -16 -40 -58 -55 -58 -7
0 -15 15 -19 33 -5 26 -2 35 15 50 16 12 24 14 29 7 5 -8 9 -6 13 5 4 9 3 14
-2 11 -5 -3 -12 2 -15 11 -6 14 -9 14 -22 -5 -13 -20 -44 -31 -44 -17 0 14 35
71 49 82 13 10 19 8 33 -10 15 -19 16 -20 15 -3z m473 6 c20 -10 42 -30 49
-43 12 -22 12 -28 -3 -43 -21 -21 -15 -40 13 -37 11 2 21 -2 21 -9 0 -6 -3 -8
-6 -5 -4 3 -16 1 -27 -4 -16 -9 -24 -7 -43 15 -13 14 -24 30 -24 36 0 6 -4 9
-9 6 -5 -4 -8 2 -6 11 3 21 -22 73 -35 73 -5 0 -12 -4 -15 -10 -3 -5 -1 -10 5
-10 6 0 9 -4 5 -9 -3 -6 3 -14 12 -20 10 -6 14 -11 9 -11 -5 0 -24 16 -41 35
-30 32 -31 34 -11 38 46 7 73 4 106 -13z m-577 -42 c-9 -10 -26 -18 -38 -18
-11 0 -26 -5 -33 -12 -9 -9 -12 -6 -12 13 0 34 1 34 53 34 43 0 45 -1 30 -17z
m239 -67 c3 8 8 1 12 -16 4 -17 25 -55 47 -84 l40 -53 -22 -24 c-24 -26 -104
-43 -121 -26 -15 15 -11 90 6 117 19 29 21 60 4 49 -7 -5 -8 -3 -4 5 5 7 5 29
1 48 -5 27 -9 33 -16 22 -10 -17 -12 -8 -2 17 5 13 11 7 28 -26 14 -27 24 -38
27 -29z m28 34 c10 -12 10 -15 -4 -15 -9 0 -16 7 -16 15 0 8 2 15 4 15 2 0 9
-7 16 -15z m-113 -160 c6 -14 9 -25 7 -25 -10 0 -42 39 -36 44 10 11 17 6 29
-19z m-21 -50 c-3 -8 -2 -15 2 -15 12 0 32 -54 23 -63 -14 -14 -40 21 -37 51
5 41 6 42 12 42 3 0 4 -7 0 -15z m-71 -15 c4 -6 1 -9 -5 -8 -7 2 -14 -4 -15
-13 -3 -18 10 -19 33 -5 7 4 11 15 8 23 -4 8 -1 11 5 8 6 -4 8 -13 5 -21 -3
-8 -1 -14 4 -14 6 0 10 -8 10 -18 0 -9 14 -28 30 -42 35 -29 38 -40 10 -33
-13 3 -20 0 -20 -8 0 -8 -9 -1 -20 16 l-20 30 6 -35 c5 -28 1 -40 -18 -60 -26
-29 -68 -29 -75 0 -4 16 -8 16 -31 4 -32 -16 -51 -4 -44 31 5 27 22 45 22 24
0 -8 7 -6 19 5 13 12 21 14 26 6 3 -6 1 -9 -6 -8 -6 2 -14 -4 -16 -12 -3 -10
-2 -11 4 -4 4 6 16 10 26 8 9 -1 17 2 17 7 0 6 4 8 8 5 4 -2 14 -1 22 4 9 6
19 3 27 -8 12 -15 13 -14 2 7 -10 21 -9 26 7 38 23 17 9 31 -16 16 -14 -10
-21 -9 -30 2 -13 15 -30 11 -30 -6 0 -6 4 -8 9 -5 4 3 17 -4 27 -16 11 -12 13
-18 7 -14 -8 4 -13 2 -13 -6 0 -10 -3 -9 -9 2 -6 8 -7 18 -4 24 4 5 1 6 -6 2
-7 -5 -10 -15 -6 -23 4 -13 3 -13 -9 -4 -18 15 -10 44 23 81 29 34 28 33 36
20z m281 -6 c-3 -8 -2 -12 4 -9 6 3 10 -1 10 -9 0 -9 -4 -16 -10 -16 -5 0 -10
-6 -10 -13 0 -42 -160 -65 -168 -24 -2 9 1 17 7 17 6 0 11 -8 11 -17 0 -11 3
-14 8 -7 4 6 15 13 25 17 9 3 17 11 17 17 0 6 -4 8 -10 5 -5 -3 -10 -1 -10 4
0 6 9 11 21 11 11 0 18 -4 15 -8 -2 -4 0 -14 5 -22 7 -12 10 -10 16 9 6 23 7
23 21 5 13 -18 14 -18 8 3 -4 12 -2 24 5 29 8 5 9 3 4 -6 -5 -9 -4 -11 3 -6 7
4 12 14 12 22 0 8 5 14 11 14 6 0 8 -7 5 -16z m-361 -33 c3 -5 1 -12 -5 -16
-5 -3 -10 1 -10 9 0 18 6 21 15 7z m376 -55 c-7 -9 -4 -25 10 -54 24 -49 20
-72 -15 -72 -24 0 -55 39 -71 90 -6 17 -4 21 6 14 24 -15 41 -13 35 2 -3 8 -2
12 3 9 5 -3 12 4 16 15 4 11 11 18 16 14 7 -4 6 -10 0 -18z m63 -46 c23 0 32
-29 14 -46 -18 -18 -30 -7 -53 52 l-16 39 20 -22 c10 -13 27 -23 35 -23z
m-511 15 c-3 -9 -8 -14 -10 -11 -3 3 -2 9 2 15 9 16 15 13 8 -4z m575 -19 c14
-28 10 -56 -8 -56 -5 0 -10 18 -10 39 0 22 -5 42 -10 44 -6 3 -5 4 2 3 7 -1
19 -15 26 -30z m-241 -18 c-3 -8 -6 -5 -6 6 -1 11 2 17 5 13 3 -3 4 -12 1 -19z
m-333 -32 c-3 -9 -10 -16 -15 -16 -11 0 -12 43 -2 54 10 10 24 -20 17 -38z
m242 30 c3 -8 1 -23 -6 -33 -9 -16 -10 -15 -5 7 5 19 4 22 -4 10 -6 -8 -11
-27 -11 -41 0 -18 -9 -33 -27 -44 -25 -17 -26 -17 -19 0 3 10 1 23 -5 31 -8
10 -6 19 8 38 10 14 24 26 31 26 6 0 12 5 12 10 0 15 20 12 26 -4z m-156 -43
c0 -5 -5 -15 -10 -23 -8 -13 -10 -13 -10 2 0 9 -6 19 -12 21 -7 3 -3 6 10 6
12 1 22 -2 22 -6z m32 -35 c-5 -20 -3 -21 10 -11 16 14 28 8 28 -13 0 -8 -6
-11 -14 -8 -7 3 -27 -6 -44 -20 -36 -31 -53 -32 -76 -7 -30 33 -1 82 30 51 7
-7 19 -7 35 -1 13 5 20 10 16 10 -11 1 2 21 13 21 4 0 6 -10 2 -22z m165 -25
c-4 -15 -6 -15 -12 4 -4 13 -12 20 -18 16 -6 -3 -7 -1 -3 6 4 6 12 9 17 6 5
-4 10 0 10 7 1 7 3 5 6 -4 2 -10 2 -26 0 -35z m291 29 c2 -7 -9 -17 -25 -23
-15 -7 -42 -18 -60 -25 -41 -19 -64 -18 -57 1 4 8 10 12 15 9 5 -3 20 7 34 22
15 17 25 22 25 13 1 -11 3 -10 10 2 10 18 52 19 58 1z m65 -49 c-7 -2 -19 -2
-25 0 -7 3 -2 5 12 5 14 0 19 -2 13 -5z m-403 -18 c0 -12 -19 -12 -23 0 -4 9
-1 12 9 8 7 -3 14 -7 14 -8z m75 -63 c-9 -9 -60 34 -63 53 -3 12 6 8 32 -16
20 -18 34 -35 31 -37z m284 38 c9 -27 8 -30 -12 -30 -16 0 -18 3 -8 9 8 5 11
16 6 30 -10 33 2 25 14 -9z m-282 -2 c-3 -8 -6 -5 -6 6 -1 11 2 17 5 13 3 -3
4 -12 1 -19z m-60 -50 c-3 -7 -5 -2 -5 12 0 14 2 19 5 13 2 -7 2 -19 0 -25z
m263 2 c6 -11 7 -20 2 -20 -5 0 -17 9 -27 20 -16 18 -16 20 -2 20 9 0 21 -9
27 -20z m-337 -8 c6 14 12 -85 10 -147 -2 -29 0 -36 7 -25 5 8 10 12 10 8 0
-3 3 -14 7 -24 3 -10 2 -15 -3 -12 -5 3 -10 -15 -11 -40 -3 -53 11 -47 32 14
11 32 15 36 21 21 4 -11 0 -33 -10 -53 -9 -19 -16 -39 -16 -45 0 -5 -9 -19
-19 -30 l-19 -21 -29 42 c-15 24 -34 55 -42 69 -8 14 -17 28 -22 31 -4 3 -9
16 -10 30 -4 22 -9 25 -44 27 -22 1 -48 2 -57 2 -15 1 -14 6 9 39 26 37 57 54
46 26 -3 -8 -8 -12 -11 -11 -8 2 -12 -7 -12 -25 0 -7 7 -2 16 11 13 18 19 20
26 10 7 -11 8 -9 4 4 -8 26 2 41 19 27 10 -9 16 -6 25 10 6 12 9 27 7 35 -6
15 24 15 36 0 5 -6 6 3 4 20 -5 26 -4 28 8 12 10 -14 14 -15 18 -5z m519 3
c10 10 5 -31 -6 -44 -9 -12 -8 -13 4 -6 8 4 12 5 8 0 -10 -11 11 -37 24 -29 5
3 2 14 -8 25 -9 10 -12 19 -6 19 6 0 9 9 7 20 -5 25 11 26 24 1 6 -10 36 -33
67 -51 52 -29 55 -32 38 -45 -11 -8 -29 -15 -41 -15 -28 0 -28 -5 -3 -37 11
-14 20 -41 20 -59 0 -27 -4 -34 -20 -34 -18 0 -19 -3 -8 -20 26 -40 -20 -37
-66 5 -33 31 -33 40 0 19 39 -26 51 0 18 43 -14 19 -20 34 -14 38 5 3 10 2 10
-3 0 -6 8 -13 17 -16 16 -6 16 -6 0 12 -9 10 -15 21 -12 24 3 3 -2 11 -10 18
-9 7 -15 9 -13 4 2 -5 0 -10 -4 -11 -10 -4 -11 -1 -3 19 4 10 12 15 18 11 6
-3 7 -1 3 5 -3 6 -16 9 -28 7 -11 -3 -18 -1 -14 2 3 4 -1 17 -9 30 -9 13 -13
23 -9 23 3 0 -1 11 -9 24 -17 25 -12 42 8 26 7 -5 14 -8 17 -5z m-462 -41 c0
-8 -4 -12 -10 -9 -5 3 -10 10 -10 16 0 5 5 9 10 9 6 0 10 -7 10 -16z m100 -31
c0 -22 -2 -24 -15 -13 -12 10 -13 15 -4 20 6 5 8 13 4 20 -5 9 -4 11 3 6 7 -4
12 -19 12 -33z m-133 -20 c-3 -10 -5 -2 -5 17 0 19 2 27 5 18 2 -10 2 -26 0
-35z m108 -3 c-3 -5 -10 -10 -16 -10 -5 0 -9 5 -9 10 0 6 7 10 16 10 8 0 12
-4 9 -10z m42 -32 c-3 -8 -6 -5 -6 6 -1 11 2 17 5 13 3 -3 4 -12 1 -19z m-37
-16 c0 -15 -7 -38 -16 -51 l-17 -24 -18 24 c-19 25 -25 54 -11 63 14 9 30 -9
35 -39 5 -28 5 -28 5 5 0 48 1 50 12 50 6 0 10 -12 10 -28z m-93 -14 c-3 -7
-5 -2 -5 12 0 14 2 19 5 13 2 -7 2 -19 0 -25z m-170 -23 c-2 -5 -27 -10 -56
-11 -37 0 -60 -7 -82 -23 -16 -12 -34 -19 -39 -16 -16 10 -12 25 6 25 9 0 27
9 40 19 18 14 39 19 79 18 31 -1 53 -6 52 -12z m390 2 c4 -5 0 -5 -10 -1 -13
5 -16 2 -11 -10 3 -9 10 -16 16 -16 5 0 7 -10 4 -22 -3 -13 -3 -17 0 -10 3 6
11 9 16 6 7 -4 8 -2 4 4 -4 7 -1 12 9 12 9 0 14 -3 11 -8 -6 -11 39 -83 48
-75 4 4 9 -2 12 -14 3 -12 24 -34 45 -49 21 -15 39 -31 39 -35 0 -8 -62 -14
-110 -11 -23 1 -69 -37 -76 -63 -3 -13 -15 -27 -25 -30 -10 -4 -22 -17 -25
-31 -7 -28 -19 -31 -27 -6 -3 9 -15 43 -27 74 -13 34 -20 73 -18 95 l4 38 8
-42 c5 -24 12 -41 16 -38 4 3 7 -13 6 -35 0 -27 5 -45 18 -57 18 -17 18 -17 8
3 -6 11 -9 32 -6 45 5 20 4 21 -6 9 -10 -13 -11 -13 -7 0 2 8 10 14 16 13 6
-2 11 2 11 7 0 6 5 9 11 8 6 -2 17 15 24 37 7 24 14 34 17 25 3 -8 4 -6 2 5
-2 11 -4 37 -4 58 0 31 -3 38 -17 35 -9 -2 -18 -9 -21 -17 -3 -9 0 -11 8 -6 9
6 11 4 5 -6 -5 -7 -12 -29 -16 -49 -5 -23 -7 -3 -6 58 2 50 -1 92 -5 92 -4 0
-8 4 -8 9 0 11 55 9 67 -2z m249 -45 c-9 -8 -26 10 -26 26 1 15 2 15 15 -2 8
-11 13 -21 11 -24z m-583 -34 c6 -22 5 -22 -8 -4 -17 22 -20 40 -6 32 5 -3 11
-16 14 -28z m214 -45 c-2 -16 -4 -3 -4 27 0 30 2 43 4 28 2 -16 2 -40 0 -55z
m-415 35 c-4 -16 -2 -19 8 -13 9 5 11 4 6 -4 -4 -6 -9 -29 -11 -50 -3 -33 0
-40 21 -49 16 -8 22 -16 17 -28 -4 -12 -3 -15 6 -10 7 5 10 14 7 22 -3 7 0 16
5 20 7 4 10 -6 7 -27 -3 -30 -1 -33 27 -35 16 0 38 4 48 10 15 9 21 7 32 -8
14 -18 15 -18 26 10 7 16 12 54 13 85 1 40 5 55 13 52 18 -7 36 -69 28 -95
-10 -31 -76 -90 -94 -83 -18 7 -61 -21 -61 -40 0 -26 -40 -29 -67 -3 -21 20
-24 29 -18 64 6 39 5 41 -18 37 -19 -4 -26 1 -34 24 -14 41 -11 115 6 121 10
3 13 -3 9 -27 -2 -17 -1 -31 4 -31 4 0 8 18 8 40 0 22 4 40 9 40 5 0 7 -10 3
-22z m98 -43 c-6 -16 -6 -25 0 -25 5 0 12 11 16 24 3 15 12 23 22 21 13 -2 17
-12 15 -45 -2 -44 -21 -68 -36 -47 -7 9 -10 9 -14 -1 -4 -10 -9 -8 -19 6 -10
15 -11 27 -2 56 6 20 15 36 19 36 5 0 4 -11 -1 -25z m896 -8 c5 -12 8 -37 6
-54 l-3 -33 -30 33 c-17 17 -35 41 -40 52 l-10 20 16 -20 c9 -11 20 -20 26
-20 5 0 14 -7 19 -15 8 -13 10 -13 10 1 0 9 -7 19 -15 23 -8 3 -15 14 -15 25
0 26 24 18 36 -12z m-526 -12 c0 -14 -4 -25 -9 -25 -4 0 -6 11 -3 25 2 14 6
25 8 25 2 0 4 -11 4 -25z m37 -27 c-3 -8 -6 -5 -6 6 -1 11 2 17 5 13 3 -3 4
-12 1 -19z m-460 -3 c0 -8 -4 -12 -9 -9 -5 3 -6 10 -3 15 9 13 12 11 12 -6z
m430 -37 c-3 -8 -6 -5 -6 6 -1 11 2 17 5 13 3 -3 4 -12 1 -19z m20 0 c-3 -8
-6 -5 -6 6 -1 11 2 17 5 13 3 -3 4 -12 1 -19z m-377 -23 c7 -9 8 -15 2 -15 -5
0 -12 7 -16 15 -3 8 -4 15 -2 15 2 0 9 -7 16 -15z m690 -63 c0 -10 -6 -27 -14
-38 -13 -17 -12 -22 16 -51 l30 -31 -17 -59 c-22 -72 -30 -81 -69 -91 -22 -6
-36 -18 -49 -45 -11 -22 -28 -39 -42 -43 -13 -3 -26 -12 -29 -20 -8 -20 -28
-17 -52 9 -25 26 -37 80 -22 95 8 8 8 19 0 39 -17 45 -36 132 -30 138 14 15
37 -10 40 -43 2 -23 8 -36 16 -35 6 2 12 -2 12 -9 0 -9 3 -9 12 0 9 9 8 16 -4
29 -20 24 -30 53 -18 53 6 0 10 -9 10 -19 0 -22 16 -36 24 -22 3 5 3 23 0 40
-6 26 -9 29 -25 20 -16 -8 -19 -6 -20 18 0 24 -1 25 -8 8 -8 -19 -8 -19 -16 4
l-8 25 -18 -23 c-10 -13 -17 -33 -15 -45 3 -11 7 -40 10 -63 6 -41 5 -42 -16
-34 -13 5 -23 12 -24 17 0 5 -4 17 -9 27 -18 42 55 169 77 135 4 -7 8 -9 8 -4
0 5 6 3 13 -3 8 -6 17 -8 20 -4 4 3 7 -1 7 -10 0 -9 7 -17 15 -17 10 0 15 -10
15 -32 0 -23 3 -29 11 -21 15 15 3 49 -33 85 -31 32 -24 54 8 27 13 -10 17
-10 25 2 8 12 9 12 7 -1 -4 -25 13 -60 28 -60 10 0 13 -6 9 -19 -4 -13 0 -20
16 -24 16 -4 20 -11 16 -26 -3 -12 -2 -19 3 -16 4 3 10 -2 13 -9 4 -10 0 -13
-13 -11 -12 2 -26 -5 -35 -18 l-15 -21 0 21 c0 11 -7 23 -15 27 -8 3 -15 0
-15 -7 1 -17 25 -47 38 -47 7 0 11 -10 9 -21 -1 -14 4 -23 16 -24 21 -4 21 4
2 29 -23 30 -17 44 6 16 11 -14 18 -20 15 -13 -8 15 4 44 15 37 5 -3 9 -2 8 3
-4 22 3 24 22 7 11 -10 20 -14 19 -9 -5 23 1 36 13 29 6 -4 3 3 -8 17 -11 13
-20 25 -21 27 -1 2 -4 -4 -8 -13 -4 -11 -2 -14 6 -9 7 5 8 3 3 -5 -5 -9 -13
-7 -31 10 -13 12 -22 25 -19 27 3 3 -3 15 -12 26 -18 21 -18 21 4 2 13 -10 20
-22 18 -26 -3 -4 3 -14 13 -21 13 -10 14 -10 6 0 -13 14 -7 54 7 45 17 -10 9
19 -8 32 -10 7 -18 20 -18 30 0 13 -14 21 -50 31 -67 17 -100 16 -119 -3 -9
-8 -16 -11 -16 -5 0 19 32 41 58 41 15 -1 54 3 87 8 58 8 61 8 88 -20 15 -15
27 -36 27 -46z m-130 7 c0 -6 9 -9 20 -6 22 6 37 -8 20 -18 -6 -4 -7 -12 -3
-18 4 -7 0 -6 -10 2 -9 7 -17 10 -17 5 0 -10 -29 28 -30 39 0 4 5 7 10 7 6 0
10 -5 10 -11z m-341 -41 c1 -5 -3 -8 -7 -8 -4 0 -8 12 -9 28 -1 23 -1 24 7 7
5 -11 9 -23 9 -27z m-45 7 c3 -8 1 -15 -4 -15 -6 0 -10 7 -10 15 0 8 2 15 4
15 2 0 6 -7 10 -15z m-5 -67 c0 -33 -2 -38 -9 -23 -8 18 -9 18 -9 2 -1 -10 6
-20 14 -23 8 -4 15 -11 15 -17 0 -6 -3 -8 -6 -4 -9 9 -41 -27 -37 -43 2 -8 -4
-1 -13 17 -16 31 -16 35 2 75 16 36 31 57 42 58 1 0 2 -19 1 -42z m-167 13 c7
11 8 9 5 -6 -8 -29 -56 -147 -68 -165 -5 -8 -12 -23 -15 -32 -8 -24 -10 -23
-47 12 -18 17 -45 34 -61 38 -27 7 -27 8 -10 22 16 13 17 13 10 0 -5 -8 3 -4
17 10 23 23 24 27 10 49 -10 16 -11 21 -2 16 9 -6 11 -3 6 8 -3 9 -3 16 1 16
20 -3 32 2 27 11 -4 6 -11 7 -17 4 -7 -4 -8 -2 -4 5 6 9 11 9 21 1 15 -12 9
-40 -7 -40 -6 0 -4 -8 3 -17 8 -9 9 -14 3 -10 -7 4 -11 -5 -12 -26 l0 -32 19
38 c11 21 17 42 14 47 -3 6 -1 10 5 10 6 0 9 4 6 8 -3 5 0 9 7 10 7 0 22 3 34
6 13 2 26 0 29 -6 4 -7 2 -8 -4 -4 -14 8 -15 -3 -3 -23 7 -11 10 -9 16 9 4 12
2 27 -4 33 -6 6 -11 16 -11 22 0 5 5 2 11 -9 9 -15 13 -16 21 -5z m197 -23
c-3 -25 1 -39 10 -34 5 3 11 -3 14 -14 3 -12 -1 -24 -11 -30 -15 -8 -15 -11
-2 -21 13 -9 13 -10 0 -6 -21 5 -34 117 -14 117 3 0 4 -6 3 -12z m98 -10 c-3
-8 -6 -5 -6 6 -1 11 2 17 5 13 3 -3 4 -12 1 -19z m-62 2 c-3 -5 -12 -10 -18
-10 -7 0 -6 4 3 10 19 12 23 12 15 0z m-182 -67 c-4 -52 -24 -126 -31 -119 -2
3 2 31 8 63 6 32 14 68 16 81 8 38 12 24 7 -25z m247 37 c0 -5 -2 -10 -4 -10
-3 0 -8 5 -11 10 -3 6 -1 10 4 10 6 0 11 -4 11 -10z m303 -37 c-3 -7 -6 -13
-8 -13 -2 0 -5 6 -8 13 -3 8 1 14 8 14 7 0 11 -6 8 -14z m-493 -19 c0 -8 -5
-12 -10 -9 -6 4 -8 11 -5 16 9 14 15 11 15 -7z m220 -14 c-9 -5 -9 -9 -1 -14
6 -4 11 -14 11 -21 0 -10 -7 -8 -23 8 -20 19 -21 24 -9 34 8 7 19 10 25 6 5
-3 4 -9 -3 -13z m-542 -35 c56 -15 142 -77 142 -103 0 -10 -7 -7 -24 11 -33
36 -73 54 -133 60 -38 4 -55 2 -64 -9 -6 -8 -17 -14 -24 -14 -7 0 -12 -14 -13
-31 0 -18 -5 -36 -11 -42 -5 -5 -7 -16 -4 -23 4 -12 8 -12 22 -2 12 10 12 8
-2 -8 -15 -18 -16 -26 -6 -48 9 -20 15 -23 26 -15 20 17 16 34 -4 18 -15 -11
-16 -11 -5 1 18 21 15 34 -5 19 -16 -13 -17 -12 -4 4 8 9 16 15 19 12 3 -3 12
1 21 7 13 10 14 10 4 -2 -17 -19 -16 -31 2 -24 22 9 18 -9 -5 -24 -11 -7 -20
-17 -20 -24 0 -6 10 -3 22 8 l21 19 -18 -33 c-11 -17 -28 -35 -38 -38 -22 -7
-47 12 -47 36 0 10 -6 23 -14 29 -25 21 -28 60 -7 95 12 20 18 41 14 55 -4 14
1 29 13 41 11 10 25 26 33 35 8 11 21 14 35 11 11 -4 45 -13 74 -21z m488 15
c14 0 31 -12 45 -32 21 -29 21 -31 3 -24 -10 5 -48 15 -82 22 -58 13 -69 12
-125 -5 -34 -10 -63 -18 -65 -16 -1 1 0 9 4 18 10 28 74 48 138 42 32 -3 69
-5 82 -5z m-42 -69 c9 -8 16 -18 16 -23 0 -5 10 -19 23 -30 12 -11 17 -17 10
-14 -6 4 -14 -2 -16 -11 -4 -14 -5 -13 -6 5 0 12 -6 22 -12 22 -8 0 -10 -14
-6 -42 4 -29 3 -37 -3 -23 -7 17 -9 15 -9 -12 -1 -18 -5 -33 -11 -33 -5 0 -10
-7 -10 -15 0 -25 -44 -12 -48 14 -2 15 -9 21 -18 17 -10 -4 -14 2 -14 19 0 13
-5 27 -10 30 -7 4 -7 12 0 25 5 10 10 33 10 51 0 26 2 30 15 19 14 -12 39 -5
31 8 -8 13 42 6 58 -7z m-480 -6 c-4 -8 -10 -12 -16 -9 -5 3 -19 -2 -31 -13
-21 -18 -21 -18 -7 1 11 14 34 29 57 35 1 1 0 -6 -3 -14z m33 -17 c-3 -8 -6
-5 -6 6 -1 11 2 17 5 13 3 -3 4 -12 1 -19z m319 10 c3 -4 3 -12 -2 -19 -5 -9
-11 -7 -21 6 -7 11 -13 13 -13 6 0 -7 -4 -10 -9 -7 -5 3 -13 0 -18 -7 -13 -16
-14 -59 -2 -52 5 4 7 -9 4 -30 -2 -21 0 -33 5 -30 6 4 10 0 10 -7 1 -7 7 -2
15 12 14 25 15 25 10 -10 -4 -25 -3 -30 3 -15 9 19 9 19 16 -2 4 -13 4 -28 0
-34 -4 -8 -3 -9 4 -5 8 5 12 -1 13 -16 0 -22 1 -22 9 -3 8 18 9 18 10 -5 l2
-25 8 25 c7 23 8 23 10 -10 2 -33 3 -33 10 -10 l8 25 2 -25 c2 -21 4 -19 10
10 l7 35 3 -40 3 -40 7 45 7 45 3 -40 c1 -22 4 -32 7 -22 2 9 8 15 13 12 12
-7 20 22 22 81 1 27 7 54 13 59 16 15 37 17 32 3 -2 -7 -9 -12 -15 -11 -5 1
-13 -4 -16 -13 -3 -8 -2 -12 4 -9 6 3 10 1 10 -5 0 -6 4 -9 9 -6 5 4 7 -4 3
-16 -5 -21 -6 -21 -12 -3 -5 15 -8 11 -14 -19 -4 -21 -5 -41 -2 -44 3 -3 6 6
6 19 0 19 2 21 10 9 8 -13 10 -12 10 3 0 10 4 15 10 12 6 -4 7 1 3 11 -5 13
-3 15 7 9 9 -6 12 -4 8 7 -4 8 0 15 8 15 7 0 11 -4 8 -9 -4 -5 2 -4 13 2 10 7
20 21 20 32 2 20 1 20 -13 2 -9 -11 -13 -13 -9 -6 4 7 1 21 -7 30 -11 15 -11
15 2 5 10 -8 21 -9 30 -3 14 9 13 11 -9 14 -21 3 -20 13 1 12 28 -1 32 27 4
32 -13 3 -16 0 -11 -10 3 -7 -1 -4 -9 6 -12 15 -16 16 -16 5 0 -12 -2 -12 -10
1 -16 25 -11 31 13 19 12 -7 23 -12 25 -11 9 7 24 -2 41 -27 20 -27 20 -30 4
-85 -14 -50 -19 -56 -42 -56 -34 0 -45 -8 -65 -48 -12 -22 -32 -40 -60 -53
-24 -10 -49 -25 -56 -34 -10 -12 -17 -10 -52 18 -22 18 -47 46 -55 62 -18 34
-73 100 -84 100 -4 0 -11 4 -16 9 -4 5 -3 6 4 3 8 -5 10 4 6 31 -4 32 0 43 24
68 27 29 70 40 89 22z m185 -11 c-10 -9 -11 -8 -5 6 3 10 9 15 12 12 3 -3 0
-11 -7 -18z m-421 -22 c0 -18 4 -23 15 -19 22 9 18 -14 -5 -26 -22 -12 -26
-44 -10 -85 5 -14 6 -24 1 -21 -5 4 -12 0 -15 -6 -3 -7 -4 -2 -1 12 4 22 3 22
-10 -5 -8 -16 -15 -39 -15 -50 -1 -11 -4 -15 -6 -8 -3 7 -12 9 -21 6 -10 -4
-14 -2 -10 4 3 5 0 10 -8 10 -10 0 -11 -6 -4 -24 5 -14 5 -22 0 -19 -5 3 -11
-2 -14 -13 -2 -10 3 -22 13 -29 21 -13 30 -6 31 22 0 17 2 16 11 -6 8 -24 12
-26 30 -17 18 9 20 18 15 58 -3 27 -2 38 2 26 7 -18 9 -16 15 12 4 18 3 42 -4
55 -10 21 -10 21 3 5 13 -16 15 -16 21 -1 9 23 7 36 -4 29 -14 -9 -12 8 4 30
12 17 14 15 17 -22 3 -23 1 -39 -3 -37 -11 7 -19 -32 -13 -63 4 -23 4 -24 -4
-8 -5 11 -10 15 -10 9 -1 -6 -4 -26 -7 -43 -8 -37 12 -43 25 -8 8 19 10 20 16
5 4 -11 -1 -29 -15 -48 -16 -23 -29 -30 -55 -30 -18 0 -52 -9 -76 -20 -61 -27
-72 -26 -66 7 3 15 1 36 -5 47 -13 23 4 83 37 136 13 21 21 41 17 44 -3 4 1 4
11 0 11 -4 19 0 24 12 3 11 11 22 16 26 7 4 4 16 -6 32 -11 16 -13 27 -7 31 6
4 9 3 8 -2 -4 -13 23 -55 30 -48 4 4 8 15 8 26 3 35 4 39 14 39 6 0 10 -11 10
-25z m-135 5 c-13 -22 7 -31 28 -13 13 12 17 13 12 3 -12 -20 -14 -50 -3 -50
5 0 6 -5 2 -11 -4 -8 -11 -3 -20 12 -7 13 -18 24 -26 24 -15 0 -18 27 -3 37
14 11 17 10 10 -2z m349 -7 c4 -8 11 -11 18 -7 6 4 3 -8 -9 -27 -11 -19 -23
-41 -25 -49 -3 -10 -6 -8 -10 8 -4 13 -2 20 4 16 5 -3 8 2 6 12 -2 11 2 18 10
17 6 -2 12 1 12 5 0 16 -13 22 -26 11 -13 -11 -29 4 -20 19 8 14 35 10 40 -5z
m520 -73 c35 -54 57 -72 72 -59 7 6 15 4 22 -4 16 -18 -20 -67 -70 -96 -22
-12 -41 -28 -44 -36 -5 -11 -11 -12 -32 -2 -39 17 -41 25 -21 66 10 21 16 49
13 62 -5 19 -4 21 5 9 15 -22 13 -7 -5 40 -13 32 -14 43 -4 55 18 22 32 14 64
-35z m-639 -23 c40 -67 47 -90 34 -114 -20 -38 -55 -28 -38 11 8 17 5 36 -9
79 -23 63 -17 74 13 24z m149 7 c3 -8 2 -12 -4 -9 -6 3 -10 10 -10 16 0 14 7
11 14 -7z m420 -39 c-6 -15 -8 -15 -16 -2 -4 8 -5 23 -2 32 6 15 8 15 16 2 4
-8 5 -23 2 -32z m-474 -61 c6 -18 26 -46 43 -61 22 -20 33 -38 34 -61 l2 -33
-35 28 c-72 57 -87 76 -89 118 -1 22 -6 51 -10 65 l-8 25 26 -24 c15 -13 31
-39 37 -57z m87 44 c-3 -8 -6 -5 -6 6 -1 11 2 17 5 13 3 -3 4 -12 1 -19z m384
-35 c-12 -20 -14 -14 -5 12 4 9 9 14 11 11 3 -2 0 -13 -6 -23z m242 18 c14 -6
28 -20 32 -33 3 -13 14 -37 23 -55 15 -31 15 -33 -5 -55 -15 -16 -20 -31 -16
-50 8 -43 -4 -71 -41 -96 -28 -19 -43 -23 -73 -17 -35 5 -39 4 -49 -23 -10
-26 -92 -92 -114 -92 -16 0 -28 34 -24 65 3 25 2 26 -4 6 -6 -20 -10 -13 -20
38 -7 33 -17 61 -22 61 -19 0 -10 51 15 90 20 31 31 40 54 40 16 0 34 -7 41
-15 11 -13 8 -15 -13 -15 -14 0 -38 -10 -52 -23 -26 -21 -27 -26 -19 -82 4
-33 10 -53 13 -45 3 8 10 -7 17 -35 l12 -50 2 40 3 40 7 -40 c5 -29 8 -33 9
-15 2 23 3 24 11 5 8 -18 9 -18 10 5 1 23 2 23 10 5 8 -18 9 -18 9 -2 1 11 6
15 12 11 8 -4 9 3 4 26 -6 25 -4 31 6 25 8 -6 11 -4 7 7 -4 8 -1 15 7 15 10 0
11 -7 4 -25 -5 -14 -8 -27 -5 -29 2 -3 7 5 11 16 3 12 11 19 16 16 14 -9 11 4
-8 36 -17 28 -41 44 -51 34 -3 -2 0 -10 6 -17 7 -9 7 -17 -1 -28 -19 -24 -40
-24 -32 0 5 14 2 20 -10 20 -9 0 -15 -6 -14 -12 4 -34 -3 -41 -17 -16 -13 25
-13 30 2 53 9 14 13 25 8 25 -4 0 -5 2 -3 5 3 2 25 -2 49 -9 65 -19 65 -20 62
-35 -2 -7 1 -10 7 -7 5 4 13 1 17 -5 5 -8 3 -9 -6 -4 -9 6 -11 4 -5 -4 5 -9
11 -9 17 -3 7 7 3 21 -13 44 -13 18 -16 27 -8 21 9 -7 18 -11 21 -8 2 3 18
-10 34 -28 l29 -32 -32 29 c-38 35 -45 21 -8 -14 25 -23 25 -23 43 -4 17 20
24 37 25 62 0 7 7 10 15 7 12 -4 12 -3 3 9 -9 11 -9 16 -1 21 9 5 9 10 1 18
-16 16 -13 27 7 27 36 1 -15 20 -55 21 -56 0 -70 -4 -101 -34 -34 -33 -45 -34
-31 -4 6 13 26 32 45 42 19 10 34 22 34 26 0 10 52 59 62 59 4 0 18 -4 31 -9z
m-413 -26 c0 -26 65 -211 81 -230 13 -17 38 -98 41 -134 4 -46 -12 -48 -42 -5
-60 83 -112 144 -120 139 -4 -2 -12 7 -19 21 -13 28 -15 164 -3 164 5 0 16 16
25 35 20 41 37 46 37 10z m-354 -63 c-3 -4 -1 -26 3 -48 5 -21 11 -53 14 -71
l6 -31 -60 34 c-67 38 -75 40 -82 22 -4 -10 -6 -10 -6 -1 -1 7 15 31 35 52 31
35 45 42 87 50 5 0 6 -3 3 -7z m739 -24 c-4 -16 6 -23 28 -19 5 1 6 -3 2 -8
-3 -6 -13 -7 -23 -4 -15 6 -16 5 -2 -13 9 -12 5 -11 -13 5 -15 14 -29 22 -32
19 -3 -3 8 -17 25 -32 17 -14 26 -26 20 -26 -6 0 -8 -4 -5 -10 3 -5 1 -10 -5
-10 -6 0 -8 -6 -4 -12 4 -7 -9 2 -28 20 -19 18 -37 30 -40 27 -2 -3 -13 5 -24
17 -19 23 -19 23 1 7 11 -8 26 -14 33 -13 6 1 17 2 23 3 5 0 7 6 4 11 -4 6
-10 8 -15 5 -4 -3 -13 2 -20 10 -7 8 -17 12 -23 8 -6 -3 -7 -1 -3 6 4 6 12 9
17 6 5 -4 11 0 14 7 3 8 20 14 39 14 27 0 33 -4 31 -18z m-535 -29 c0 -11 -4
-18 -10 -14 -5 3 -7 12 -3 20 7 21 13 19 13 -6z m-110 -25 c0 -3 -4 -2 -10 1
-13 8 -13 -1 0 -26 6 -10 8 -19 6 -19 -6 0 -36 55 -36 65 0 3 9 1 20 -5 11 -6
20 -13 20 -16z m36 -60 c17 -40 18 -55 3 -34 -8 11 -9 8 -5 -15 5 -23 4 -26
-4 -14 -5 10 -12 33 -15 53 -2 20 -7 42 -11 48 -5 7 -3 8 5 3 7 -4 19 -22 27
-41z m-212 10 c3 -8 2 -12 -4 -9 -6 3 -10 10 -10 16 0 14 7 11 14 -7z m343
-66 c-3 -8 -6 -5 -6 6 -1 11 2 17 5 13 3 -3 4 -12 1 -19z m-1 -66 c-11 -10
-15 4 -8 28 l7 25 3 -23 c2 -13 1 -26 -2 -30z m-56 -87 c0 -5 -9 5 -20 23 -11
18 -20 38 -20 45 1 14 39 -52 40 -68z m72 13 c3 -147 3 -188 -3 -185 -3 1 -13
-4 -22 -12 -10 -7 -17 -9 -17 -3 0 6 4 12 9 14 10 3 14 22 12 53 -1 17 -3 18
-11 5 -8 -13 -10 -12 -10 3 0 9 4 17 10 17 5 0 6 7 3 17 -5 12 -3 14 8 8 11
-6 12 -5 2 6 -7 7 -13 22 -13 34 0 16 2 17 10 5 14 -21 13 35 0 61 -8 13 -7
19 0 19 6 0 8 5 5 10 -3 6 -1 10 4 10 7 0 12 -26 13 -62z m355 20 c-3 -8 -6
-5 -6 6 -1 11 2 17 5 13 3 -3 4 -12 1 -19z m-1173 -95 c5 9 7 9 12 0 3 -7 12
-13 20 -13 8 0 14 -2 14 -4 0 -2 3 -11 6 -19 4 -11 -1 -13 -23 -9 -15 2 -25 1
-20 -4 4 -4 17 -9 29 -11 12 -2 28 -9 36 -16 13 -10 14 -9 4 10 -14 26 -15 33
-3 33 5 0 16 -13 24 -30 l15 -30 -41 5 c-35 4 -49 14 -84 53 -23 26 -44 56
-47 67 -4 15 2 12 24 -12 18 -20 31 -28 34 -20z m746 6 c0 -12 -4 -17 -11 -14
-6 4 -8 10 -5 13 3 3 -2 14 -11 25 -17 19 -17 20 5 8 12 -6 22 -21 22 -32z
m406 -23 c0 -14 -5 -21 -9 -17 -4 4 -5 15 -1 24 9 24 12 21 10 -7z m-1007 -62
c14 -31 9 -41 -9 -19 -7 8 -9 15 -5 15 4 0 2 7 -5 15 -7 8 -8 15 -3 15 5 0 15
-12 22 -26z m915 18 c3 -5 -1 -9 -9 -9 -8 0 -15 4 -15 9 0 4 4 8 9 8 6 0 12
-4 15 -8z m-874 -21 c0 -5 12 -12 28 -16 35 -9 90 -34 123 -56 14 -10 29 -16
31 -13 3 2 16 -7 29 -21 13 -13 29 -25 35 -25 7 0 26 -13 44 -30 18 -16 36
-30 40 -30 5 0 12 -9 15 -20 4 -11 10 -18 15 -15 5 3 12 -5 16 -17 3 -13 13
-30 21 -38 27 -30 61 -89 68 -119 4 -17 11 -31 15 -31 5 0 7 8 4 18 -4 9 5 -1
20 -23 14 -22 26 -49 26 -59 0 -11 3 -16 7 -13 10 11 43 -72 43 -112 0 -27 3
-32 10 -21 8 11 10 -1 8 -42 -2 -31 -6 -54 -11 -51 -4 2 -7 14 -6 26 3 30 -12
87 -22 87 -5 0 -9 -7 -9 -17 0 -9 -3 -14 -6 -10 -4 3 -2 19 4 35 7 19 7 34 0
43 -8 11 -9 10 -4 -4 4 -11 2 -16 -5 -12 -6 4 -8 14 -4 22 3 9 -4 31 -15 50
-11 19 -20 42 -21 51 0 12 -3 10 -10 -6 -5 -13 -7 -27 -4 -31 2 -4 -2 -8 -10
-8 -8 0 -12 4 -9 9 3 5 1 15 -5 22 -6 7 -9 20 -6 28 4 9 0 22 -8 29 -7 8 -12
19 -10 24 2 6 -4 20 -12 30 -14 19 -15 19 -8 1 4 -13 3 -17 -5 -12 -7 4 -12 3
-12 -3 0 -5 4 -13 10 -16 5 -3 15 -16 22 -28 10 -20 10 -21 -5 -8 -22 17 -22
7 -1 -25 19 -28 13 -42 -8 -20 -8 8 -18 40 -22 72 -4 32 -16 73 -27 91 -11 18
-17 33 -14 33 11 0 -44 71 -79 103 -24 22 -131 85 -131 77 0 -6 -65 28 -88 47
-27 22 -54 23 -42 2 3 -5 0 -6 -7 -4 -15 6 -38 51 -30 60 8 8 22 6 22 -4z
m858 -10 c12 -7 11 -13 -1 -37 -32 -60 -112 -148 -142 -155 -28 -8 -29 -7 -11
6 11 8 16 15 12 15 -5 0 -3 6 3 13 6 8 8 17 4 20 -3 4 2 9 11 13 9 3 13 10 10
15 -3 5 2 6 12 2 14 -5 13 -8 -7 -20 l-24 -14 25 7 c34 9 35 11 19 31 -8 9 -9
14 -4 11 6 -3 23 8 39 24 32 31 26 36 -19 12 l-30 -15 30 33 c47 51 51 53 73
39z m-908 -43 c0 -6 -7 -5 -15 2 -8 7 -15 17 -15 22 0 6 7 5 15 -2 8 -7 15
-17 15 -22z m-20 -19 c0 -4 -6 -12 -14 -18 -12 -10 -14 -9 -11 6 1 10 -5 27
-14 37 -16 19 -16 19 11 0 15 -10 28 -22 28 -25z m758 19 c-7 -13 -19 -27 -26
-31 -11 -8 -42 -59 -42 -72 0 -3 4 -4 8 -1 5 3 9 -1 9 -8 0 -8 -7 -12 -15 -9
-10 4 -12 15 -7 39 3 19 2 34 -3 34 -11 0 -32 -76 -32 -114 0 -14 -4 -26 -8
-26 -4 0 -6 17 -4 38 2 25 0 33 -6 24 -7 -11 -10 -9 -15 8 -7 26 14 68 31 62
6 -2 12 4 12 12 0 9 8 19 18 23 9 3 25 13 34 20 9 8 21 12 27 9 5 -4 12 -2 16
4 12 20 15 9 3 -12z m46 -40 c-20 -29 -38 -55 -41 -58 -12 -11 21 47 44 78 39
52 37 37 -3 -20z m-900 16 c3 -8 2 -12 -4 -9 -6 3 -10 10 -10 16 0 14 7 11 14
-7z m546 1 c-7 -9 -15 -13 -19 -10 -3 3 1 10 9 15 21 14 24 12 10 -5z m-324
-71 c-6 -15 -11 -11 -31 25 -33 57 -31 62 6 24 23 -22 30 -37 25 -49z m72 15
c2 -23 2 -23 -13 -5 -18 24 -20 39 -2 34 6 -3 13 -15 15 -29z m-43 -43 c-8
-12 -12 -26 -8 -29 3 -4 1 -7 -4 -7 -19 0 -21 24 -4 46 21 29 35 20 16 -10z
m98 3 c-8 -8 -13 -7 -18 2 -5 8 -4 10 3 5 7 -4 12 -2 12 5 0 7 3 9 7 6 4 -4 2
-12 -4 -18z m63 5 c18 -12 22 -20 14 -29 -8 -10 1 -25 37 -60 40 -39 42 -43
12 -21 -20 14 -40 26 -45 26 -9 0 -57 100 -48 100 3 0 16 -7 30 -16z m-90 -31
c-4 -4 -11 -1 -16 7 -16 25 -11 35 7 17 9 -9 13 -20 9 -24z m-51 8 c-3 -5 -1
-12 5 -16 5 -3 10 -13 10 -21 0 -8 -4 -13 -9 -9 -5 3 -12 1 -16 -5 -4 -6 -11
-7 -17 -4 -7 5 -2 11 11 16 18 6 21 11 12 22 -6 7 -8 16 -4 19 9 10 15 8 8 -2z
m513 -23 c3 -37 -7 -33 -14 6 -2 14 -1 26 4 26 4 0 9 -14 10 -32z m-407 -5 c8
-9 9 -14 2 -10 -6 4 -18 4 -27 1 -13 -5 -14 -9 -5 -20 17 -21 34 -17 18 4 -13
15 -12 16 3 3 20 -15 13 -35 -9 -27 -12 5 -14 1 -9 -19 4 -14 2 -25 -4 -25 -5
0 -10 6 -10 13 0 6 -3 28 -6 49 -5 30 -3 37 12 41 11 3 20 5 20 6 1 0 8 -7 15
-16z m101 -15 l23 -33 -38 29 c-41 31 -44 36 -23 36 8 0 25 -15 38 -32z m243
-22 c1 -29 0 -32 -12 -21 -9 9 -11 24 -7 40 8 33 16 25 19 -19z m150 -4 c-14
-26 -34 -74 -45 -107 -19 -58 -19 -59 -14 -15 4 25 10 50 14 55 4 6 6 18 5 27
-2 10 1 20 5 23 5 3 7 12 4 19 -5 13 30 46 49 46 4 0 -3 -21 -18 -48z m-51 4
c-3 -15 -8 -25 -11 -23 -2 3 -1 17 3 31 3 15 8 25 11 23 2 -3 1 -17 -3 -31z
m-578 -38 l29 -33 -32 29 c-31 28 -38 36 -30 36 2 0 16 -15 33 -32z m544 16
c0 -8 -5 -12 -10 -9 -6 4 -8 11 -5 16 9 14 15 11 15 -7z m-310 -19 c0 -4 -23
-2 -48 4 -2 1 0 6 3 11 6 10 45 -4 45 -15z m-75 6 c3 -5 2 -12 -3 -15 -5 -3
-9 1 -9 9 0 17 3 19 12 6z m355 5 c0 -3 -4 -8 -10 -11 -5 -3 -10 -1 -10 4 0 6
5 11 10 11 6 0 10 -2 10 -4z m-445 -16 c3 -6 -1 -7 -9 -4 -18 7 -21 14 -7 14
6 0 13 -4 16 -10z m162 -26 c0 -7 -6 -10 -14 -7 -20 8 -16 -1 14 -28 23 -21
25 -22 19 -4 -6 16 -5 18 5 8 21 -21 33 -15 14 7 -11 12 -13 20 -6 20 7 0 9 5
5 12 -4 7 -3 8 5 4 6 -4 9 -12 6 -17 -4 -5 -3 -15 1 -21 5 -7 9 -19 11 -28 10
-59 10 -70 3 -70 -4 0 -15 12 -25 26 -9 14 -19 23 -23 20 -3 -4 0 -12 6 -18 7
-7 12 -16 12 -22 0 -5 -7 -1 -15 10 -9 12 -14 14 -15 6 0 -15 -20 -6 -20 9 0
6 5 7 10 4 6 -3 10 -1 10 5 0 6 -7 13 -15 16 -8 4 -15 11 -15 17 0 5 9 2 20
-8 11 -10 20 -13 20 -7 0 6 -11 19 -25 28 -30 19 -34 53 -7 51 10 0 19 -6 19
-13z m-120 -16 c-3 -8 -6 -5 -6 6 -1 11 2 17 5 13 3 -3 4 -12 1 -19z m440 -10
c-3 -7 -5 -2 -5 12 0 14 2 19 5 13 2 -7 2 -19 0 -25z m-482 -18 l30 -35 -32
29 c-18 17 -33 34 -33 40 0 5 1 7 3 5 1 -2 16 -20 32 -39z m442 -67 c-3 -10
-5 -2 -5 17 0 19 2 27 5 18 2 -10 2 -26 0 -35z m-306 -96 c121 -175 175 -264
166 -273 -4 -4 -25 27 -119 181 -28 44 -68 105 -91 135 -22 30 -31 47 -20 37
12 -10 40 -46 64 -80z m356 51 c-3 -7 -5 -2 -5 12 0 14 2 19 5 13 2 -7 2 -19
0 -25z m-360 -10 c-3 -8 -6 -5 -6 6 -1 11 2 17 5 13 3 -3 4 -12 1 -19z m109
-10 c3 -4 -1 -5 -10 -4 -8 1 -18 5 -22 8 -3 4 1 5 10 4 8 -1 18 -5 22 -8z m54
-12 c0 4 10 -2 23 -14 13 -12 26 -20 29 -17 2 3 5 -1 5 -7 0 -7 3 -24 7 -37 6
-18 5 -22 -5 -16 -9 6 -10 3 -5 -11 4 -10 -9 -1 -29 21 -21 22 -30 29 -21 15
29 -46 37 -65 16 -37 -12 15 -27 24 -32 21 -6 -4 -8 -2 -4 4 3 6 3 13 -2 16
-4 2 -9 21 -10 42 -3 32 -1 36 13 24 8 -7 15 -9 15 -4z m190 -178 c0 -94 -2
-169 -5 -167 -2 3 -5 63 -5 134 -2 171 -1 205 5 205 3 0 5 -77 5 -172z m-228
30 c-8 -8 -9 -4 -5 13 4 13 8 18 11 10 2 -7 -1 -18 -6 -23z m164 -77 c2 -31 1
-33 -8 -17 -6 11 -12 36 -14 55 -2 31 -1 33 8 17 6 -11 12 -36 14 -55z m-56
-98 c-11 -17 -11 -17 -6 0 3 10 7 33 8 50 l1 32 4 -32 c2 -18 -1 -41 -7 -50z
m71 50 c-12 -20 -14 -14 -5 12 4 9 9 14 11 11 3 -2 0 -13 -6 -23z m83 -11 c3
-5 -1 -9 -9 -9 -8 0 -12 4 -9 9 3 4 7 8 9 8 2 0 6 -4 9 -8z m26 -36 c0 -2 -8
-10 -17 -17 -16 -13 -17 -12 -4 4 13 16 21 21 21 13z m-8 -38 c-5 -7 -12 -22
-14 -33 -3 -17 -5 -15 -10 7 -3 15 -2 25 3 23 4 -3 10 -1 14 5 3 5 9 10 12 10
3 0 1 -6 -5 -12z"/>
<path d="M2720 3635 c0 -8 2 -15 4 -15 2 0 12 -3 21 -7 15 -5 16 -3 6 15 -13
25 -31 29 -31 7z"/>
<path d="M2401 3447 c0 -6 4 -21 9 -32 l9 -20 1 20 c1 20 1 20 15 1 8 -11 15
-15 15 -10 0 6 -11 20 -25 32 -14 13 -25 17 -24 9z"/>
<path d="M2380 3431 c0 -11 4 -22 9 -25 4 -3 6 6 3 19 -5 30 -12 33 -12 6z"/>
<path d="M2345 3410 c4 -14 12 -29 17 -35 7 -7 8 -2 3 15 -4 14 -12 30 -17 35
-7 7 -8 2 -3 -15z"/>
<path d="M2250 3278 c0 -9 5 -20 10 -23 13 -8 13 5 0 25 -8 13 -10 13 -10 -2z"/>
<path d="M2468 3239 c-22 -24 -22 -25 0 -25 11 0 18 9 18 23 1 13 1 23 0 22 0
0 -9 -9 -18 -20z"/>
<path d="M2202 2910 c0 -14 2 -19 5 -12 2 6 2 18 0 25 -3 6 -5 1 -5 -13z"/>
<path d="M2242 2670 c0 -14 2 -19 5 -12 2 6 2 18 0 25 -3 6 -5 1 -5 -13z"/>
<path d="M2720 2986 c0 -2 8 -10 18 -17 15 -13 16 -12 3 4 -13 16 -21 21 -21
13z"/>
<path d="M2080 2661 c0 -6 5 -13 10 -16 6 -3 10 1 10 9 0 9 -4 16 -10 16 -5 0
-10 -4 -10 -9z"/>
<path d="M2060 2629 c0 -5 5 -7 10 -4 6 3 10 8 10 11 0 2 -4 4 -10 4 -5 0 -10
-5 -10 -11z"/>
<path d="M2615 2380 c3 -5 8 -10 11 -10 2 0 4 5 4 10 0 6 -5 10 -11 10 -5 0
-7 -4 -4 -10z"/>
<path d="M2511 2350 c0 -8 4 -22 9 -30 12 -18 12 -2 0 25 -6 13 -9 15 -9 5z"/>
<path d="M2551 2248 l1 -53 13 45 13 45 2 -55 c2 -49 3 -52 11 -25 11 37 -2
89 -24 93 -14 3 -17 -5 -16 -50z"/>
<path d="M2607 2269 c3 -10 9 -16 14 -13 13 8 11 21 -5 27 -10 4 -12 0 -9 -14z"/>
<path d="M2636 2223 c4 -26 4 -26 -5 -5 -15 33 -20 27 -11 -14 11 -49 16 -51
24 -8 4 20 3 41 -2 46 -6 6 -8 -1 -6 -19z"/>
<path d="M2020 2392 c0 -7 -5 -10 -12 -6 -6 4 -8 3 -5 -4 9 -13 -2 -44 -13
-37 -5 3 -6 -4 -3 -16 3 -11 9 -17 12 -12 12 16 30 13 25 -5 -3 -9 2 -5 11 11
14 24 14 30 1 55 -8 15 -15 21 -16 14z"/>
<path d="M1976 2295 c3 -22 6 -46 7 -52 0 -7 4 -13 7 -13 12 0 26 24 25 40 -1
8 -3 21 -3 28 -1 7 -6 11 -11 7 -6 -3 -14 3 -20 12 -8 14 -9 8 -5 -22z"/>
<path d="M2260 2192 c0 -4 5 -13 12 -20 9 -9 8 -12 -4 -12 -9 0 -18 6 -21 13
-2 6 -8 9 -12 4 -5 -4 2 -18 15 -32 l24 -26 8 22 c5 12 11 19 14 16 3 -3 0
-15 -6 -27 -9 -16 -9 -25 -1 -33 8 -8 11 -4 11 14 0 14 5 30 12 37 9 9 7 16
-8 29 -22 20 -44 27 -44 15z"/>
<path d="M2220 2133 c0 -5 4 -15 10 -23 11 -18 25 -7 17 15 -6 15 -27 21 -27
8z"/>
<path d="M2267 2067 c-3 -7 -1 -20 3 -28 7 -11 10 -10 16 4 4 10 2 23 -3 28
-7 7 -12 6 -16 -4z"/>
<path d="M1907 2094 c-3 -3 -3 -13 0 -21 5 -12 7 -12 14 -1 15 23 4 40 -14 22z"/>
<path d="M1874 2049 c-3 -6 1 -18 10 -27 15 -15 16 -14 16 11 0 27 -13 36 -26
16z"/>
<path d="M1837 2023 c-4 -3 -7 -11 -7 -17 0 -6 5 -4 10 4 8 13 10 13 10 -2 0
-9 -4 -20 -10 -23 -5 -3 -10 -13 -10 -21 0 -10 5 -9 20 6 11 11 20 24 20 29 0
13 -26 32 -33 24z"/>
<path d="M2627 2106 c-4 -9 0 -29 8 -44 8 -15 14 -22 15 -16 0 13 30 14 30 1
0 -6 3 -8 6 -5 8 9 -26 69 -36 63 -4 -3 -10 0 -12 7 -3 7 -7 5 -11 -6z m23
-41 c0 -5 -5 -3 -10 5 -5 8 -10 20 -10 25 0 6 5 3 10 -5 5 -8 10 -19 10 -25z"/>
<path d="M2620 1775 c0 -8 7 -15 15 -15 8 0 15 7 15 15 0 8 -7 15 -15 15 -8 0
-15 -7 -15 -15z"/>
<path d="M2796 1869 c21 -23 23 -23 20 -2 -2 9 -11 17 -20 19 -17 2 -17 2 0
-17z"/>
<path d="M2756 1871 c-4 -5 -2 -12 3 -15 5 -4 12 -2 15 3 4 5 2 12 -3 15 -5 4
-12 2 -15 -3z"/>
<path d="M2790 1819 c0 -5 -6 -7 -12 -3 -7 4 -4 -2 6 -14 22 -26 35 -30 15 -5
-12 15 -12 16 5 10 16 -6 17 -5 6 8 -15 18 -20 19 -20 4z"/>
<path d="M2112 1101 c13 -15 25 -27 27 -25 7 6 -29 54 -40 54 -6 0 0 -13 13
-29z"/>
<path d="M2455 1240 c-8 -13 5 -13 25 0 13 8 13 10 -2 10 -9 0 -20 -4 -23 -10z"/>
<path d="M2417 1173 c-10 -10 -8 -23 4 -23 5 0 8 4 5 9 -4 5 0 12 6 14 7 3 8
6 2 6 -6 1 -14 -2 -17 -6z"/>
<path d="M2060 1022 c0 -5 10 -17 21 -28 22 -19 22 -19 10 3 -12 24 -31 39
-31 25z"/>
<path d="M2170 886 c0 -11 43 -77 47 -72 6 6 -24 63 -37 71 -5 3 -10 4 -10 1z"/>
<path d="M3223 4820 c-13 -5 -23 -14 -23 -21 0 -6 243 -511 540 -1121 l539
-1111 -543 -1126 -543 -1126 31 -17 c17 -9 34 -13 37 -10 4 4 252 518 553
1142 l547 1135 -28 60 c-160 340 -1070 2199 -1078 2201 -5 1 -20 -1 -32 -6z"/>
<path d="M947 4783 c-4 -3 -7 -1020 -7 -2260 l0 -2253 40 0 40 0 0 2260 0
2260 -33 0 c-19 0 -37 -3 -40 -7z"/>
<path d="M2120 3561 c0 -11 4 -21 9 -21 18 0 21 18 6 30 -13 10 -15 9 -15 -9z"/>
<path d="M2170 1638 c0 -9 5 -20 10 -23 13 -8 13 5 0 25 -8 13 -10 13 -10 -2z"/>
<path d="M2300 371 c0 -6 4 -13 10 -16 6 -3 7 1 4 9 -7 18 -14 21 -14 7z"/>
</g>
</svg>
